<svg xmlns="http://www.w3.org/2000/svg" width="62" height="143.046" viewBox="0 0 62 143.046"><path fill="#fff" d="M0 0v143.046l62-6.572v-136.47400000000002z"/><path fill="#004899" d="M2.661 107.734h56.794v-105.576h-56.794z"/><path fill="#BD1D1D" d="M2.661 140.066l56.794-6.916v-25.457h-56.794z"/><path fill="#fff" d="M21.348 107.041c-1.351 0-1.981-1.312-1.981-4.129 0-2.818.63-4.128 1.981-4.128 1.354 0 1.983 1.31 1.983 4.128 0 2.817-.629 4.129-1.983 4.129zm0-9.116c-2.876 0-4.276 1.63-4.276 4.986 0 3.354 1.4 4.983 4.276 4.983 2.879 0 4.277-1.629 4.277-4.983 0-3.356-1.398-4.986-4.277-4.986zM35.375 97.926l-3.52.5v.602h.079c.673 0 1.393.121 1.393 1.554v2.597c0 1.277-1.135 3.312-2.08 3.312-.998 0-1.414-.424-1.414-3.046v-5.529l-3.609.513v.602h.078c.674 0 1.394.121 1.394 1.554v4.518c0 1.453.327 2.8 2.688 2.8 1.665 0 2.525-1.438 2.943-2.245v2.023h3.608v-.6h-.078c-.672 0-1.393-.119-1.393-1.553v-7.611l-.089.009zM49.996 97.926l-3.52.5v.602h.078c.674 0 1.393.121 1.393 1.554v4.804c0 1.35-.285 1.697-1.393 1.697h-.078v.611h5.08v-.611h-.078c-1.108 0-1.395-.349-1.395-1.697v-2.739c0-1.276 1.266-3.312 2.316-3.312.828 0 1.177.423 1.177 3.046v3.004c0 1.349-.287 1.697-1.394 1.697h-.078v.611h5.078v-.611h-.076c-1.106 0-1.395-.351-1.395-1.697v-4.66c0-1.452-.295-2.799-2.449-2.799-1.815 0-2.738 1.458-3.181 2.26v-2.271l-.085.011zM39.736 101.562c0-1.033.119-2.779 1.801-2.779 1.542 0 1.586 1.285 1.605 2.779h-3.406zm5.547.919c.131-3.139-1.032-4.558-3.668-4.558-2.734 0-4.178 1.61-4.178 4.659 0 3.377 1.779 5.312 4.885 5.312 1.336 0 2.39-.4 2.734-.534l.051-.021v-.909l-.104.041c-.601.231-1.181.345-1.776.345-2.547 0-3.49-2.615-3.49-4.255h5.548l-.002-.08zM10.502 100.246h-1.168v-3.846c0-1.147.104-1.396 1.208-1.396 1.927 0 2.825.854 2.825 2.683 0 1.721-.938 2.559-2.865 2.559zm9.168 9.674c-2.86 0-4.867-4.662-4.867-4.662s-1.73-3.933-2.037-4.216c1.975-.365 3.095-.963 3.095-3.62 0-3.175-3.72-3.517-5.319-3.517h-5.36v.672h.083c1.408 0 1.657.272 1.657 1.823v8.796c0 1.55-.249 1.819-1.657 1.819h-.083v.677h5.892v-.677h-.081c-1.41 0-1.659-.271-1.659-1.819v-3.849c.136 0 .988.008.984 0 .458.317 1.653 3.68 3.118 6.27 1.478 2.626 3.539 3.278 4.505 3.278 1.361 0 1.937-.537 1.937-.537l-.127-.438h-.081z"/><path fill="#F9B000" d="M39.632 63.9s1.126 6.346 1.126 8.758c0 2.41 1.286 4.742 1.528 5.064.241.321 1.354 4.889 1.354 6.016 0 1.125-.518 3.395-.838 3.878-.162.241-.865.622-1.498 1.043-.654.411-.177-3.042-.332-2.914-.383.309-1.166 3.112-.744 4.519.244.803.244.965 1.448.402 1.206-.562 3.136-2.01 3.136-2.01-.321-1.288-.321-2.493.16-2.975.484-.484.965-2.093.241-3.619-.723-1.526-1.286-4.02-1.526-5.388-.24-1.364-1.289-6.588-1.102-10.351 2.701-.467 4.777-.697 6.166-.583.868.071 6.287.387 10.703.141v-2.909c-7.675 1.337-16.377-.229-19.822.928zm-4.093 1.467c2.46-.958 5.395-3.241 5.893-8.396-1.744 2.991-2.5 5.529-6.199 5.932-3.698.404-10.245.229-11.19.259-.946.028-3.091.294-3.909.813-.818.521-2.011 2.977-2.011 2.977.162.562.322 1.365.643.965.322-.4 1.929-2.172 1.929-2.172.483-.162 1.125-.081.724.48-.401.564-7.154 9.486-7.154 9.486-.908 1.109-.563 2.092-.563 2.092 1.527-1.609 5.676-6.511 5.676-6.511 1.125 1.528 3.334 4.399 3.575 4.88.242.48.639.959.155 1.441-.236.236-1.024 1.041-1.271 1.396-.061.089-2.684-4.524-2.742-4.438-.182.278-.422.825.05 1.396.474.572 2.006 3.812 2.199 5.588 1.35-.836 3.56-3.388 3.78-4.733-.841-.536-3.204-5.16-3.51-5.849-.395-.883-.033-1.936.287-2.418.323-.48 2.573-3.615 2.573-3.615 2.171.641 6.276 1.012 7.93 1.062.174.005.406-.003.675-.028 1.33 2.774 5.908 12.211 7.666 14.264-2.114-6.526-4.485-12.941-5.206-14.871zm-19.036-38.892c-2.683 6.635-3.831 24.039 6.261 32.646 0 0-3.375.857-3.571.916-.402.12-1.502.316-2.062 1.745-.56 1.427-1.502 3.881-1.583 4.202-.08.324-1.206 3.139.081 3.139 0 0 2.162-5.283 2.426-5.803.29-.57 1.031-1.596 2.077-1.918 0 0 1.429-.455 2.905-.92 0 0 2.176-2.771 2.47-3.323-9.258-5.494-12.196-21.906-6.152-31.8v-.28c-2.399.14-3.481-1.985-3.995-3.13.654-.586 3.553-1.98 5.56-.071 2.878-7.563 10.583-4.905 11.658-4.019 2.383 1.61 2.904 4.58 2.672 7.453 0 2.01 2.047 3.69 1.463 5.816-.439 1.297-2.094 4.03-6.219 3.396-3.527-.981-5.952-3.652-8.126-6.809 0 0-.117-.143-.282-.046s-.134.378-.092.562c2.786 7.989 11.513 11.686 16.832 11.324.433-.574.88-1.188 1.066-1.486-.31-.024-5.432.642-7.101-1.94-.514-.817 1.019-.096 2.589-.843 3.059-1.537 3.415-5.023 2.872-6.401-.405-1.03-1.657-3.456-1.354-5.536 2.234-1.054 3.014-3.314 2.244-3.994-1.332-.467-2.896-.352-4.041-1.287-2.312-3.528-12.177-4.346-15.583 1.402-1.098-.375-4.601-.582-6.213 1.963.207 2.487 1.959 4.233 3.198 5.042zm42.952-9.989v-5.533c-2.092 3.349-15.27 20.804-15.27 20.804s2.193-.825 3.254-.764c-.017-.043-4.037 6.009-6.201 8.588-4.582 6.61-9.791 13.04-14.441 19.556v.008c-.229.32-.454.674-.1.598 0 0 2.627-.645 5.254-1.286 2.625-.644 1.554-1.07-.429-1.231-1.983-.158 6.216-9.646 7.666-11.685 1.446-2.036 3.164-3.412 5.804-4.674 1.586-.761 8.356-1.435 14.465-1.897v-1.65c-2.712.098-4.747.17-5.315.184-2.199.053-6.647.643-9.647.643l-.695.023c2.623-3.425 5.148-6.908 5.63-7.557 3.672-1.09 6.953-.522 10.026.275v-1.802c-3.39-.789-6.787-1.325-11.214-.12.007-.003 1.645-1.773 1.658-1.773.677-.537 3.938-.438 3.938-.438s1.345-2.325 1.384-2.325c-.385-1.113-2.604-.601-2.604-.601s1.129-2.257 2.373-2.44c.781-.048 2.494.008 2.494.008l1.375-2.588s-.529-1.061-1.982-.668l.879-1.382c.65-.247 1.227-.301 1.698-.273zm-31.246 9.784c.397-.117 1.122.023 1.075-.561-.982-1.961-3.085-3.061-5.233-2.874-.165.024-.444.233-.375.444.585 2.01 2.733 2.71 4.533 2.991z"/></svg>